<svg width="139" height="22" viewBox="0 0 139 22" fill="none" xmlns="http://www.w3.org/2000/svg">
<path d="M0.237216 21V0.636363H3.30966V9.4858H13.4616V0.636363H16.544V21H13.4616V12.1207H3.30966V21H0.237216ZM25.1244 21.3381C24.1566 21.3381 23.2816 21.1591 22.4994 20.8011C21.7172 20.4366 21.0974 19.9096 20.6401 19.2202C20.1893 18.5308 19.9639 17.6856 19.9639 16.6847C19.9639 15.8229 20.1296 15.1136 20.4611 14.5568C20.7925 14 21.24 13.5592 21.8034 13.2344C22.3669 12.9096 22.9966 12.6643 23.6926 12.4986C24.3886 12.3329 25.0979 12.2069 25.8205 12.1207C26.7352 12.0147 27.4777 11.9285 28.0477 11.8622C28.6178 11.7893 29.0321 11.6733 29.2906 11.5142C29.5491 11.3551 29.6784 11.0966 29.6784 10.7386V10.669C29.6784 9.80066 29.4331 9.12784 28.9426 8.65057C28.4587 8.17329 27.7362 7.93466 26.775 7.93466C25.7741 7.93466 24.9852 8.15672 24.4085 8.60085C23.8384 9.03835 23.444 9.52557 23.2253 10.0625L20.4312 9.42614C20.7627 8.49811 21.2466 7.74905 21.883 7.17898C22.5259 6.60227 23.2651 6.18466 24.1003 5.92614C24.9355 5.66098 25.8138 5.52841 26.7352 5.52841C27.3451 5.52841 27.9914 5.60133 28.6741 5.74716C29.3635 5.88636 30.0065 6.14489 30.6031 6.52273C31.2063 6.90057 31.7002 7.44081 32.0847 8.14347C32.4691 8.83949 32.6614 9.74432 32.6614 10.858V21H29.758V18.9119H29.6386C29.4464 19.2964 29.158 19.6742 28.7736 20.0455C28.3891 20.4167 27.8953 20.7249 27.292 20.9702C26.6888 21.2154 25.9663 21.3381 25.1244 21.3381ZM25.7707 18.9517C26.5927 18.9517 27.2954 18.7893 27.8787 18.4645C28.4687 18.1397 28.9161 17.7154 29.221 17.1918C29.5326 16.6615 29.6884 16.0947 29.6884 15.4915V13.5227C29.5823 13.6288 29.3768 13.7282 29.0719 13.821C28.7736 13.9072 28.4322 13.9834 28.0477 14.0497C27.6633 14.1094 27.2887 14.1657 26.9241 14.2188C26.5596 14.2652 26.2546 14.3049 26.0094 14.3381C25.4327 14.411 24.9057 14.5336 24.4284 14.706C23.9578 14.8783 23.5799 15.1269 23.2949 15.4517C23.0165 15.7699 22.8773 16.1941 22.8773 16.7244C22.8773 17.4602 23.1491 18.017 23.6926 18.3949C24.2362 18.7661 24.9289 18.9517 25.7707 18.9517ZM48.7812 5.72727V21H45.8778V5.72727H48.7812ZM47.5184 12.8168V15.3821C47.061 15.5677 46.5771 15.7334 46.0667 15.8793C45.5563 16.0185 45.0193 16.1278 44.4559 16.2074C43.8924 16.2869 43.3058 16.3267 42.696 16.3267C40.8067 16.3267 39.3053 15.866 38.1917 14.9446C37.0781 14.0166 36.5212 12.598 36.5212 10.6889V5.69744H39.4147V10.6889C39.4147 11.4115 39.5473 11.9981 39.8124 12.4489C40.0776 12.8996 40.4554 13.2311 40.946 13.4432C41.4365 13.6553 42.0198 13.7614 42.696 13.7614C43.5908 13.7614 44.4161 13.6785 45.1718 13.5128C45.9341 13.3404 46.7163 13.1084 47.5184 12.8168ZM57.0807 21.3381C56.1129 21.3381 55.2379 21.1591 54.4557 20.8011C53.6735 20.4366 53.0537 19.9096 52.5963 19.2202C52.1456 18.5308 51.9202 17.6856 51.9202 16.6847C51.9202 15.8229 52.0859 15.1136 52.4173 14.5568C52.7488 14 53.1962 13.5592 53.7597 13.2344C54.3231 12.9096 54.9528 12.6643 55.6489 12.4986C56.3449 12.3329 57.0542 12.2069 57.7767 12.1207C58.6915 12.0147 59.4339 11.9285 60.004 11.8622C60.5741 11.7893 60.9884 11.6733 61.2469 11.5142C61.5054 11.3551 61.6347 11.0966 61.6347 10.7386V10.669C61.6347 9.80066 61.3894 9.12784 60.8989 8.65057C60.415 8.17329 59.6924 7.93466 58.7313 7.93466C57.7303 7.93466 56.9415 8.15672 56.3648 8.60085C55.7947 9.03835 55.4003 9.52557 55.1815 10.0625L52.3875 9.42614C52.7189 8.49811 53.2028 7.74905 53.8392 7.17898C54.4822 6.60227 55.2213 6.18466 56.0565 5.92614C56.8918 5.66098 57.7701 5.52841 58.6915 5.52841C59.3013 5.52841 59.9476 5.60133 60.6304 5.74716C61.3198 5.88636 61.9628 6.14489 62.5594 6.52273C63.1626 6.90057 63.6564 7.44081 64.0409 8.14347C64.4254 8.83949 64.6176 9.74432 64.6176 10.858V21H61.7142V18.9119H61.5949C61.4027 19.2964 61.1143 19.6742 60.7298 20.0455C60.3454 20.4167 59.8515 20.7249 59.2483 20.9702C58.6451 21.2154 57.9225 21.3381 57.0807 21.3381ZM57.727 18.9517C58.549 18.9517 59.2516 18.7893 59.8349 18.4645C60.4249 18.1397 60.8723 17.7154 61.1773 17.1918C61.4888 16.6615 61.6446 16.0947 61.6446 15.4915V13.5227C61.5385 13.6288 61.3331 13.7282 61.0281 13.821C60.7298 13.9072 60.3884 13.9834 60.004 14.0497C59.6195 14.1094 59.245 14.1657 58.8804 14.2188C58.5158 14.2652 58.2109 14.3049 57.9656 14.3381C57.3889 14.411 56.8619 14.5336 56.3847 14.706C55.914 14.8783 55.5362 15.1269 55.2511 15.4517C54.9727 15.7699 54.8335 16.1941 54.8335 16.7244C54.8335 17.4602 55.1053 18.017 55.6489 18.3949C56.1924 18.7661 56.8851 18.9517 57.727 18.9517ZM66.5833 8.29261V5.72727H79.4697V8.29261H74.4881V21H71.5847V8.29261H66.5833ZM84.7514 10.9773H89.1861C91.0554 10.9773 92.4938 11.4413 93.5014 12.3693C94.509 13.2973 95.0128 14.4938 95.0128 15.9588C95.0128 16.9134 94.7874 17.7718 94.3366 18.5341C93.8859 19.2964 93.2263 19.8996 92.358 20.3438C91.4896 20.7812 90.4323 21 89.1861 21H82.5142V5.72727H85.4276V18.4347H89.1861C90.0412 18.4347 90.7438 18.2126 91.294 17.7685C91.8442 17.3177 92.1193 16.7443 92.1193 16.0483C92.1193 15.3125 91.8442 14.7126 91.294 14.2486C90.7438 13.7779 90.0412 13.5426 89.1861 13.5426H84.7514V10.9773Z" fill="white"/>
<path d="M129.062 21.3679L127.272 19.5881L133.487 13.3835H107.058V10.7983H133.487L127.272 4.58381L129.062 2.81392L138.339 12.0909L129.062 21.3679Z" fill="#5AD18D"/>
</svg>
