<svg width="344" height="78" viewBox="0 0 344 78" fill="none" xmlns="http://www.w3.org/2000/svg">
<rect width="344" height="64" rx="16" fill="white"/>
<path d="M36.3238 30.1719V32.2187H29.6285V30.1719H36.3238ZM25.4957 33.9219H27.9488C28.0842 34.974 28.4332 35.7786 28.9957 36.3359C29.5634 36.8932 30.4462 37.1719 31.6441 37.1719C32.5296 37.1719 33.2587 36.9375 33.8316 36.4687C34.4046 35.9948 34.829 35.3542 35.1051 34.5469C35.3863 33.7396 35.5269 32.8333 35.5269 31.8281V30.2031C35.5269 29.1198 35.3707 28.1771 35.0582 27.375C34.7457 26.5729 34.29 25.9531 33.691 25.5156C33.0973 25.0781 32.3707 24.8594 31.5113 24.8594C30.7353 24.8594 30.0999 24.9922 29.6051 25.2578C29.1103 25.5234 28.7301 25.9036 28.4644 26.3984C28.204 26.888 28.0322 27.4792 27.9488 28.1719H25.4879C25.5921 27.1406 25.8785 26.2187 26.3473 25.4062C26.8212 24.5937 27.4853 23.9531 28.3394 23.4844C29.1988 23.0156 30.2561 22.7812 31.5113 22.7812C32.8342 22.7812 33.9775 23.0885 34.941 23.7031C35.9098 24.3125 36.6572 25.1719 37.1832 26.2812C37.7092 27.3906 37.9723 28.6927 37.9723 30.1875V31.8516C37.9723 33.3464 37.7118 34.6458 37.191 35.75C36.6754 36.8542 35.9436 37.7083 34.9957 38.3125C34.0478 38.9167 32.9306 39.2187 31.6441 39.2187C30.3577 39.2187 29.2769 38.9896 28.4019 38.5312C27.5269 38.0677 26.8499 37.4375 26.3707 36.6406C25.8915 35.8385 25.5999 34.9323 25.4957 33.9219ZM39.9187 29.0156V27H50.0437V29.0156H46.1297V39H43.8484V29.0156H39.9187ZM56.8105 39.2422C55.6855 39.2422 54.7038 38.9844 53.8652 38.4687C53.0267 37.9531 52.3756 37.2318 51.9121 36.3047C51.4486 35.3776 51.2168 34.2943 51.2168 33.0547C51.2168 31.8099 51.4486 30.7214 51.9121 29.7891C52.3756 28.8568 53.0267 28.1328 53.8652 27.6172C54.7038 27.1016 55.6855 26.8438 56.8105 26.8438C57.9355 26.8438 58.9173 27.1016 59.7559 27.6172C60.5944 28.1328 61.2454 28.8568 61.709 29.7891C62.1725 30.7214 62.4043 31.8099 62.4043 33.0547C62.4043 34.2943 62.1725 35.3776 61.709 36.3047C61.2454 37.2318 60.5944 37.9531 59.7559 38.4687C58.9173 38.9844 57.9355 39.2422 56.8105 39.2422ZM56.8184 37.2812C57.5475 37.2812 58.1517 37.0885 58.6309 36.7031C59.11 36.3177 59.4642 35.8047 59.6934 35.1641C59.9277 34.5234 60.0449 33.8177 60.0449 33.0469C60.0449 32.2812 59.9277 31.5781 59.6934 30.9375C59.4642 30.2917 59.11 29.7734 58.6309 29.3828C58.1517 28.9922 57.5475 28.7969 56.8184 28.7969C56.084 28.7969 55.4746 28.9922 54.9902 29.3828C54.5111 29.7734 54.1543 30.2917 53.9199 30.9375C53.6907 31.5781 53.5762 32.2812 53.5762 33.0469C53.5762 33.8177 53.6907 34.5234 53.9199 35.1641C54.1543 35.8047 54.5111 36.3177 54.9902 36.7031C55.4746 37.0885 56.084 37.2812 56.8184 37.2812ZM70.434 39V27H75.4105C76.7647 27 77.8376 27.2891 78.6293 27.8672C79.421 28.4401 79.8168 29.2187 79.8168 30.2031C79.8168 30.9062 79.5928 31.4635 79.1449 31.875C78.697 32.2865 78.1033 32.5625 77.3637 32.7031C77.9001 32.7656 78.3923 32.9271 78.8402 33.1875C79.2881 33.4427 79.6475 33.7865 79.9184 34.2187C80.1944 34.651 80.3324 35.1667 80.3324 35.7656C80.3324 36.401 80.1684 36.9635 79.8402 37.4531C79.5121 37.9375 79.0355 38.3177 78.4105 38.5937C77.7907 38.8646 77.0434 39 76.1684 39H70.434ZM72.6293 37.0469H76.1684C76.7465 37.0469 77.1996 36.9089 77.5277 36.6328C77.8559 36.3568 78.0199 35.9818 78.0199 35.5078C78.0199 34.9505 77.8559 34.513 77.5277 34.1953C77.1996 33.8724 76.7465 33.7109 76.1684 33.7109H72.6293V37.0469ZM72.6293 32H75.434C75.8715 32 76.2465 31.9375 76.559 31.8125C76.8767 31.6875 77.1189 31.5104 77.2855 31.2812C77.4574 31.0469 77.5434 30.7708 77.5434 30.4531C77.5434 29.9896 77.3532 29.6276 76.973 29.3672C76.5928 29.1068 76.072 28.9766 75.4105 28.9766H72.6293V32ZM86.1871 39.2656C85.4267 39.2656 84.7392 39.125 84.1246 38.8437C83.51 38.5573 83.023 38.1432 82.6637 37.6016C82.3095 37.0599 82.1324 36.3958 82.1324 35.6094C82.1324 34.9323 82.2626 34.375 82.523 33.9375C82.7835 33.5 83.135 33.1536 83.5777 32.8984C84.0204 32.6432 84.5152 32.4505 85.0621 32.3203C85.609 32.1901 86.1663 32.0911 86.734 32.0234C87.4527 31.9401 88.0361 31.8724 88.484 31.8203C88.9319 31.763 89.2574 31.6719 89.4605 31.5469C89.6637 31.4219 89.7652 31.2187 89.7652 30.9375V30.8828C89.7652 30.2005 89.5725 29.6719 89.1871 29.2969C88.8069 28.9219 88.2392 28.7344 87.484 28.7344C86.6975 28.7344 86.0777 28.9089 85.6246 29.2578C85.1767 29.6016 84.8668 29.9844 84.6949 30.4062L82.4996 29.9062C82.76 29.1771 83.1402 28.5885 83.6402 28.1406C84.1454 27.6875 84.7262 27.3594 85.3824 27.1562C86.0387 26.9479 86.7288 26.8438 87.4527 26.8438C87.9319 26.8438 88.4397 26.901 88.9762 27.0156C89.5178 27.125 90.023 27.3281 90.4918 27.625C90.9657 27.9219 91.3538 28.3464 91.6559 28.8984C91.9579 29.4453 92.109 30.1563 92.109 31.0313V39H89.8277V37.3594H89.734C89.5829 37.6615 89.3564 37.9583 89.0543 38.25C88.7522 38.5417 88.3642 38.7839 87.8902 38.9766C87.4163 39.1693 86.8486 39.2656 86.1871 39.2656ZM86.6949 37.3906C87.3407 37.3906 87.8928 37.263 88.3512 37.0078C88.8147 36.7526 89.1663 36.4193 89.4059 36.0078C89.6506 35.5911 89.773 35.1458 89.773 34.6719V33.125C89.6897 33.2083 89.5282 33.2865 89.2887 33.3594C89.0543 33.4271 88.7861 33.487 88.484 33.5391C88.1819 33.5859 87.8876 33.6302 87.6012 33.6719C87.3147 33.7083 87.0751 33.7396 86.8824 33.7656C86.4293 33.8229 86.0152 33.9193 85.6402 34.0547C85.2704 34.1901 84.9736 34.3854 84.7496 34.6406C84.5309 34.8906 84.4215 35.224 84.4215 35.6406C84.4215 36.2187 84.635 36.6562 85.0621 36.9531C85.4892 37.2448 86.0335 37.3906 86.6949 37.3906ZM95.0203 27H97.3094V36.9766H101.458V27H103.747V36.9766H107.895V27H110.184V39H95.0203V27ZM125.46 36.1094L129.335 27H131.351L126.327 39H124.593L119.671 27H121.663L125.46 36.1094ZM121.015 27V39H118.726V27H121.015ZM129.968 39V27H132.241V39H129.968ZM137.444 35.7266L142.733 27H145.248V39H142.959V30.2656L137.694 39H135.155V27H137.444V35.7266ZM147.244 39L147.236 36.9766H147.666C147.999 36.9766 148.278 36.9062 148.502 36.7656C148.731 36.6198 148.918 36.375 149.064 36.0312C149.21 35.6875 149.322 35.2135 149.4 34.6094C149.478 34 149.535 33.2344 149.572 32.3125L149.783 27H158.158V39H155.869V29.0156H151.947L151.759 33.0938C151.712 34.0833 151.611 34.9479 151.455 35.6875C151.304 36.4271 151.082 37.0443 150.791 37.5391C150.499 38.0286 150.124 38.3958 149.666 38.6406C149.207 38.8802 148.65 39 147.994 39H147.244ZM166.245 39.2422C165.063 39.2422 164.044 38.9896 163.19 38.4844C162.341 37.974 161.685 37.2578 161.221 36.3359C160.763 35.4089 160.534 34.3229 160.534 33.0781C160.534 31.849 160.763 30.7656 161.221 29.8281C161.685 28.8906 162.331 28.1589 163.159 27.6328C163.992 27.1068 164.966 26.8438 166.081 26.8438C166.758 26.8438 167.414 26.9557 168.05 27.1797C168.685 27.4036 169.255 27.7552 169.761 28.2344C170.266 28.7135 170.664 29.3359 170.956 30.1016C171.248 30.862 171.393 31.7865 171.393 32.875V33.7031H161.854V31.9531H169.104C169.104 31.3385 168.979 30.7943 168.729 30.3203C168.479 29.8411 168.128 29.4635 167.675 29.1875C167.227 28.9115 166.701 28.7734 166.096 28.7734C165.44 28.7734 164.867 28.9349 164.378 29.2578C163.893 29.5755 163.518 29.9922 163.253 30.5078C162.992 31.0182 162.862 31.5729 162.862 32.1719V33.5391C162.862 34.3411 163.003 35.0234 163.284 35.5859C163.57 36.1484 163.969 36.5781 164.479 36.875C164.99 37.1667 165.586 37.3125 166.268 37.3125C166.711 37.3125 167.115 37.25 167.479 37.125C167.844 36.9948 168.159 36.8021 168.425 36.5469C168.69 36.2917 168.893 35.9766 169.034 35.6016L171.245 36C171.068 36.651 170.75 37.2214 170.292 37.7109C169.839 38.1953 169.268 38.5729 168.581 38.8437C167.899 39.1094 167.12 39.2422 166.245 39.2422ZM176.074 35.7266L181.363 27H183.879V39H181.59V30.2656L176.324 39H173.785V27H176.074V35.7266ZM180.363 22.9375H182.285C182.285 23.8177 181.973 24.5339 181.348 25.0859C180.728 25.6328 179.889 25.9062 178.832 25.9062C177.78 25.9062 176.944 25.6328 176.324 25.0859C175.704 24.5339 175.395 23.8177 175.395 22.9375H177.309C177.309 23.3281 177.423 23.6745 177.652 23.9766C177.882 24.2734 178.275 24.4219 178.832 24.4219C179.379 24.4219 179.77 24.2734 180.004 23.9766C180.243 23.6797 180.363 23.3333 180.363 22.9375ZM186.82 27H189.109V36.9766H193.257V27H195.546V36.9766H199.695V27H201.984V39H186.82V27ZM207.192 35.7266L212.481 27H214.996V39H212.707V30.2656L207.442 39H204.903V27H207.192V35.7266ZM220.226 35.7266L225.515 27H228.031V39H225.742V30.2656L220.476 39H217.937V27H220.226V35.7266ZM224.515 22.9375H226.437C226.437 23.8177 226.125 24.5339 225.5 25.0859C224.88 25.6328 224.041 25.9062 222.984 25.9062C221.932 25.9062 221.096 25.6328 220.476 25.0859C219.856 24.5339 219.546 23.8177 219.546 22.9375H221.461C221.461 23.3281 221.575 23.6745 221.804 23.9766C222.033 24.2734 222.427 24.4219 222.984 24.4219C223.531 24.4219 223.921 24.2734 224.156 23.9766C224.395 23.6797 224.515 23.3333 224.515 22.9375ZM236.594 39V27H238.93V32.0312H240.055L244.016 27H246.906L242.258 32.8359L246.961 39H244.063L240.445 34.2031H238.93V39H236.594ZM253.136 39.2422C252.011 39.2422 251.029 38.9844 250.191 38.4687C249.352 37.9531 248.701 37.2318 248.237 36.3047C247.774 35.3776 247.542 34.2943 247.542 33.0547C247.542 31.8099 247.774 30.7214 248.237 29.7891C248.701 28.8568 249.352 28.1328 250.191 27.6172C251.029 27.1016 252.011 26.8438 253.136 26.8438C254.261 26.8438 255.243 27.1016 256.081 27.6172C256.92 28.1328 257.571 28.8568 258.034 29.7891C258.498 30.7214 258.73 31.8099 258.73 33.0547C258.73 34.2943 258.498 35.3776 258.034 36.3047C257.571 37.2318 256.92 37.9531 256.081 38.4687C255.243 38.9844 254.261 39.2422 253.136 39.2422ZM253.144 37.2812C253.873 37.2812 254.477 37.0885 254.956 36.7031C255.435 36.3177 255.79 35.8047 256.019 35.1641C256.253 34.5234 256.37 33.8177 256.37 33.0469C256.37 32.2812 256.253 31.5781 256.019 30.9375C255.79 30.2917 255.435 29.7734 254.956 29.3828C254.477 28.9922 253.873 28.7969 253.144 28.7969C252.409 28.7969 251.8 28.9922 251.316 29.3828C250.836 29.7734 250.48 30.2917 250.245 30.9375C250.016 31.5781 249.902 32.2812 249.902 33.0469C249.902 33.8177 250.016 34.5234 250.245 35.1641C250.48 35.8047 250.836 36.3177 251.316 36.7031C251.8 37.0885 252.409 37.2812 253.144 37.2812ZM260.192 39L260.184 36.9766H260.614C260.947 36.9766 261.226 36.9062 261.45 36.7656C261.679 36.6198 261.866 36.375 262.012 36.0312C262.158 35.6875 262.27 35.2135 262.348 34.6094C262.426 34 262.483 33.2344 262.52 32.3125L262.731 27H271.106V39H268.817V29.0156H264.895L264.707 33.0938C264.661 34.0833 264.559 34.9479 264.403 35.6875C264.252 36.4271 264.03 37.0443 263.739 37.5391C263.447 38.0286 263.072 38.3958 262.614 38.6406C262.155 38.8802 261.598 39 260.942 39H260.192ZM273.076 39L273.068 36.9766H273.498C273.831 36.9766 274.11 36.9062 274.334 36.7656C274.563 36.6198 274.75 36.375 274.896 36.0312C275.042 35.6875 275.154 35.2135 275.232 34.6094C275.31 34 275.367 33.2344 275.404 32.3125L275.615 27H283.99V39H281.701V29.0156H277.779L277.591 33.0938C277.545 34.0833 277.443 34.9479 277.287 35.6875C277.136 36.4271 276.914 37.0443 276.623 37.5391C276.331 38.0286 275.956 38.3958 275.498 38.6406C275.039 38.8802 274.482 39 273.826 39H273.076ZM292.077 39.2422C290.895 39.2422 289.876 38.9896 289.022 38.4844C288.173 37.974 287.517 37.2578 287.053 36.3359C286.595 35.4089 286.366 34.3229 286.366 33.0781C286.366 31.849 286.595 30.7656 287.053 29.8281C287.517 28.8906 288.163 28.1589 288.991 27.6328C289.824 27.1068 290.798 26.8438 291.913 26.8438C292.59 26.8438 293.246 26.9557 293.882 27.1797C294.517 27.4036 295.087 27.7552 295.593 28.2344C296.098 28.7135 296.496 29.3359 296.788 30.1016C297.08 30.862 297.225 31.7865 297.225 32.875V33.7031H287.686V31.9531H294.936C294.936 31.3385 294.811 30.7943 294.561 30.3203C294.311 29.8411 293.96 29.4635 293.507 29.1875C293.059 28.9115 292.533 28.7734 291.928 28.7734C291.272 28.7734 290.699 28.9349 290.21 29.2578C289.725 29.5755 289.35 29.9922 289.085 30.5078C288.824 31.0182 288.694 31.5729 288.694 32.1719V33.5391C288.694 34.3411 288.835 35.0234 289.116 35.5859C289.402 36.1484 289.801 36.5781 290.311 36.875C290.822 37.1667 291.418 37.3125 292.1 37.3125C292.543 37.3125 292.947 37.25 293.311 37.125C293.676 36.9948 293.991 36.8021 294.257 36.5469C294.522 36.2917 294.725 35.9766 294.866 35.6016L297.077 36C296.9 36.651 296.582 37.2214 296.124 37.7109C295.671 38.1953 295.1 38.5729 294.413 38.8437C293.731 39.1094 292.952 39.2422 292.077 39.2422ZM307.289 27V29.0156H301.922V39H299.617V27H307.289ZM312.491 39.2656C311.731 39.2656 311.043 39.125 310.429 38.8437C309.814 38.5573 309.327 38.1432 308.968 37.6016C308.614 37.0599 308.437 36.3958 308.437 35.6094C308.437 34.9323 308.567 34.375 308.827 33.9375C309.088 33.5 309.439 33.1536 309.882 32.8984C310.325 32.6432 310.82 32.4505 311.366 32.3203C311.913 32.1901 312.471 32.0911 313.038 32.0234C313.757 31.9401 314.34 31.8724 314.788 31.8203C315.236 31.763 315.562 31.6719 315.765 31.5469C315.968 31.4219 316.07 31.2187 316.07 30.9375V30.8828C316.07 30.2005 315.877 29.6719 315.491 29.2969C315.111 28.9219 314.543 28.7344 313.788 28.7344C313.002 28.7344 312.382 28.9089 311.929 29.2578C311.481 29.6016 311.171 29.9844 310.999 30.4062L308.804 29.9062C309.064 29.1771 309.445 28.5885 309.945 28.1406C310.45 27.6875 311.03 27.3594 311.687 27.1562C312.343 26.9479 313.033 26.8438 313.757 26.8438C314.236 26.8438 314.744 26.901 315.28 27.0156C315.822 27.125 316.327 27.3281 316.796 27.625C317.27 27.9219 317.658 28.3464 317.96 28.8984C318.262 29.4453 318.413 30.1563 318.413 31.0313V39H316.132V37.3594H316.038C315.887 37.6615 315.661 37.9583 315.359 38.25C315.056 38.5417 314.668 38.7839 314.195 38.9766C313.721 39.1693 313.153 39.2656 312.491 39.2656ZM312.999 37.3906C313.645 37.3906 314.197 37.263 314.655 37.0078C315.119 36.7526 315.471 36.4193 315.71 36.0078C315.955 35.5911 316.077 35.1458 316.077 34.6719V33.125C315.994 33.2083 315.833 33.2865 315.593 33.3594C315.359 33.4271 315.09 33.487 314.788 33.5391C314.486 33.5859 314.192 33.6302 313.905 33.6719C313.619 33.7083 313.379 33.7396 313.187 33.7656C312.734 33.8229 312.32 33.9193 311.945 34.0547C311.575 34.1901 311.278 34.3854 311.054 34.6406C310.835 34.8906 310.726 35.224 310.726 35.6406C310.726 36.2187 310.939 36.6562 311.366 36.9531C311.793 37.2448 312.338 37.3906 312.999 37.3906Z" fill="#E36D2F"/>
<path d="M157.858 63.1421L172 49L186.142 63.1421L174.828 74.4558C173.266 76.0179 170.734 76.0179 169.172 74.4558L157.858 63.1421Z" fill="white"/>
</svg>
