<svg width="1090" height="334" viewBox="0 0 1090 334" fill="none" xmlns="http://www.w3.org/2000/svg">
<path id="Subtract" fill-rule="evenodd" clip-rule="evenodd" d="M652.356 316.824C668.794 327.918 692.422 333.464 723.242 333.464C763.377 333.464 794.128 326.411 815.497 312.305C836.865 298.336 847.549 278.409 847.549 252.525C847.549 232.119 840.974 216.644 827.825 206.098C814.675 195.553 795.635 190.28 770.705 190.28H731.461C724.064 190.28 717.763 189.732 712.558 188.637C707.49 187.541 703.654 185.898 701.052 183.707C698.449 181.378 697.148 178.365 697.148 174.668C697.148 170.148 698.449 166.108 701.052 162.547C703.654 158.85 707.421 155.494 712.352 152.481C718.79 153.303 725.434 153.851 732.283 154.125C760.774 154.125 783.101 147.414 799.265 133.993C815.565 120.435 823.715 101.877 823.715 78.3216C823.715 70.5153 822.62 63.3253 820.428 56.7516C818.236 50.0409 815.291 44.0835 811.593 38.8793L850.221 31.6893V4.77812H771.527C769.335 4.09335 766.116 3.47707 761.87 2.92926C757.761 2.24449 753.24 1.69668 748.309 1.28583C743.515 0.738016 739.063 0.464111 734.954 0.464111C715.914 0.464111 699.682 3.54554 686.258 9.7084C672.834 15.7343 662.63 24.5678 655.644 36.2087C648.658 47.7127 645.165 61.6819 645.165 78.1162C645.165 93.5918 648.726 107.082 655.849 118.586C663.109 129.953 672.697 138.17 684.615 143.237C675.026 148.852 667.835 154.673 663.04 160.699C658.246 166.724 655.849 173.983 655.849 182.474C655.849 189.596 658.041 196.101 662.424 201.99C666.944 207.742 672.286 211.987 678.451 214.726C662.15 218.424 649.617 225.066 640.85 234.653C632.083 244.377 627.7 256.223 627.7 270.192C627.7 290.187 635.919 305.731 652.356 316.824ZM767.623 294.638C756.117 297.925 741.94 299.568 725.091 299.568C708.106 299.568 694.956 296.761 685.642 291.146C676.464 285.531 671.876 277.519 671.876 267.111C671.876 259.578 673.725 253.141 677.423 247.8C681.259 242.459 686.601 238.351 693.45 235.475C700.298 232.736 708.175 231.366 717.078 231.366H752.829C763.788 231.366 772.965 232.119 780.362 233.626C787.759 235.132 793.306 237.871 797.005 241.843C800.703 245.815 802.552 251.498 802.552 258.893C802.552 267.248 799.607 274.438 793.717 280.464C787.827 286.626 779.129 291.351 767.623 294.638ZM765.979 110.985C759.13 118.654 748.652 122.489 734.543 122.489C720.845 122.489 710.435 118.654 703.312 110.985C696.326 103.178 692.833 92.3592 692.833 78.527C692.833 63.1884 696.326 51.6159 703.312 43.8096C710.435 36.0033 720.777 32.1001 734.337 32.1001C748.172 32.1001 758.582 35.9348 765.568 43.6041C772.691 51.2735 776.253 62.7775 776.253 78.1162C776.253 92.2223 772.828 103.178 765.979 110.985ZM257.039 0.66954C282.516 0.66954 301.693 7.24326 314.569 20.3907C327.582 33.5381 334.089 54.6288 334.089 83.6628V202.393C334.089 218.962 320.657 232.393 304.089 232.393H285.804V92.2908C285.804 75.0347 282.448 62.0243 275.736 53.2593C269.024 44.4943 258.819 40.1119 245.122 40.1119C225.945 40.1119 212.11 46.2747 203.617 58.6004C195.262 70.7892 191.084 88.5246 191.084 111.806V202.393C191.084 218.962 177.652 232.393 161.084 232.393H142.799V92.2908C142.799 80.7868 141.292 71.2001 138.279 63.5307C135.402 55.7244 130.951 49.904 124.924 46.0693C118.897 42.0977 111.294 40.1119 102.117 40.1119C88.83 40.1119 78.2143 43.1248 70.2696 49.1507C62.4618 55.1766 56.8457 64.0786 53.4213 75.8565C49.9969 87.4974 48.2846 101.809 48.2846 118.791V232.393H0V4.98354H37.6004L44.3808 35.5924H47.0518C51.7091 27.6492 57.4621 21.1439 64.311 16.0767C71.2969 10.8725 79.0361 7.03783 87.5287 4.57269C96.0214 1.97059 104.856 0.66954 114.034 0.66954C131.019 0.66954 145.333 3.68249 156.976 9.7084C168.62 15.5974 177.318 24.6362 183.071 36.825H186.769C193.892 24.4993 203.823 15.3919 216.562 9.50298C229.301 3.61402 242.793 0.66954 257.039 0.66954ZM602.839 118.175C602.839 137.074 600.373 153.851 595.442 168.505C590.511 183.159 583.319 195.553 573.868 205.687C564.417 215.685 553.047 223.354 539.761 228.695C526.474 233.9 511.475 236.502 494.763 236.502C479.148 236.502 464.834 233.9 451.821 228.695C438.808 223.354 427.507 215.685 417.919 205.687C408.467 195.553 401.139 183.159 395.934 168.505C390.729 153.851 388.126 137.074 388.126 118.175C388.126 93.1125 392.441 71.8848 401.071 54.4919C409.837 36.962 422.302 23.6091 438.466 14.4333C454.629 5.25745 473.874 0.66954 496.202 0.66954C517.159 0.66954 535.651 5.25745 551.678 14.4333C567.704 23.6091 580.237 36.962 589.278 54.4919C598.318 72.0218 602.839 93.2494 602.839 118.175ZM437.849 118.175C437.849 134.746 439.835 148.921 443.808 160.699C447.917 172.476 454.218 181.515 462.711 187.815C471.203 193.978 482.161 197.059 495.585 197.059C509.009 197.059 519.967 193.978 528.46 187.815C536.953 181.515 543.185 172.476 547.157 160.699C551.13 148.921 553.116 134.746 553.116 118.175C553.116 101.604 551.13 87.5659 547.157 76.0619C543.185 64.4209 536.953 55.5875 528.46 49.5616C519.967 43.3987 508.941 40.3173 495.38 40.3173C475.381 40.3173 460.793 47.028 451.615 60.4493C442.438 73.8706 437.849 93.1125 437.849 118.175ZM1090 4.98354V232.393H1051.99L1045.41 201.784H1042.74C1037.95 209.591 1031.85 216.096 1024.46 221.3C1017.06 226.367 1008.84 230.133 999.8 232.599C990.76 235.201 981.24 236.502 971.24 236.502C954.118 236.502 939.462 233.626 927.271 227.874C915.216 221.985 905.97 212.946 899.532 200.757C893.095 188.568 889.875 172.819 889.875 153.509V4.98354H938.366V144.47C938.366 162.137 941.927 175.352 949.05 184.117C956.31 192.882 967.542 197.265 982.746 197.265C997.403 197.265 1009.05 194.252 1017.68 188.226C1026.31 182.2 1032.4 173.298 1035.96 161.52C1039.51 150.217 1041.36 136.454 1041.5 120.231C1041.62 119.731 1041.7 119.216 1041.74 118.694C1041.94 116.073 1042.13 113.45 1042.32 110.828V110.826L1042.33 110.767C1042.42 109.445 1042.52 108.122 1042.61 106.8C1042.61 106.783 1042.62 106.766 1042.62 106.748C1042.62 106.732 1042.62 106.715 1042.62 106.699L1042.62 106.662C1042.68 106.442 1042.73 106.218 1042.76 105.992L1043.37 102.927C1043.4 102.928 1043.42 102.927 1043.45 102.925C1043.57 102.916 1043.69 102.879 1043.79 102.818C1044.01 102.679 1044.21 102.517 1044.42 102.355L1044.42 102.355C1044.47 102.314 1044.52 102.273 1044.57 102.233C1044.62 102.193 1044.67 102.154 1044.72 102.116L1048.49 99.2685L1051.47 97.0179C1053.17 95.7638 1054.57 94.0843 1055.58 92.1135C1056.52 90.2541 1056.91 88.2548 1057.32 86.2145L1057.32 86.2134L1057.32 86.2124L1057.32 86.2114L1057.41 85.7577L1059.11 77.1643L1061.24 66.4387L1062.93 57.9401C1063.37 55.7385 1063.74 53.6038 1063.74 51.3206C1063.72 46.2926 1062.28 41.3988 1059.61 37.3479C1056.95 33.2971 1053.2 30.2994 1048.9 28.7888L1041.82 26.2784L1041.51 26.1687V4.98354H1090Z" fill="#DAD4C5"/>
</svg>
